<svg width="96" height="16" viewBox="0 0 96 16" fill="none" xmlns="http://www.w3.org/2000/svg">
<path d="M14.1897 5.51739L10.2225 4.94083L8.44908 1.34551C8.40064 1.24708 8.32095 1.16739 8.22251 1.11895C7.97564 0.997076 7.67564 1.09864 7.5522 1.34551L5.77876 4.94083L1.81158 5.51739C1.7022 5.53301 1.6022 5.58458 1.52564 5.6627C1.43308 5.75784 1.38208 5.88583 1.38383 6.01855C1.38559 6.15127 1.43997 6.27786 1.53501 6.37051L4.40533 9.16895L3.7272 13.1205C3.7113 13.2124 3.72147 13.307 3.75656 13.3934C3.79166 13.4798 3.85027 13.5547 3.92575 13.6095C4.00123 13.6644 4.09056 13.6969 4.18361 13.7036C4.27666 13.7102 4.36971 13.6906 4.4522 13.6471L8.00064 11.7815L11.5491 13.6471C11.646 13.6986 11.7585 13.7158 11.8663 13.6971C12.1381 13.6502 12.321 13.3924 12.2741 13.1205L11.596 9.16895L14.4663 6.37051C14.5444 6.29395 14.596 6.19395 14.6116 6.08458C14.6538 5.81114 14.4631 5.55801 14.1897 5.51739V5.51739Z" fill="#FFC416"/>
<path d="M34.1897 5.51739L30.2225 4.94083L28.4491 1.34551C28.4006 1.24708 28.321 1.16739 28.2225 1.11895C27.9756 0.997076 27.6756 1.09864 27.5522 1.34551L25.7788 4.94083L21.8116 5.51739C21.7022 5.53301 21.6022 5.58458 21.5256 5.6627C21.4331 5.75784 21.3821 5.88583 21.3838 6.01855C21.3856 6.15127 21.44 6.27786 21.535 6.37051L24.4053 9.16895L23.7272 13.1205C23.7113 13.2124 23.7215 13.307 23.7566 13.3934C23.7917 13.4798 23.8503 13.5547 23.9257 13.6095C24.0012 13.6644 24.0906 13.6969 24.1836 13.7036C24.2767 13.7102 24.3697 13.6906 24.4522 13.6471L28.0006 11.7815L31.5491 13.6471C31.646 13.6986 31.7585 13.7158 31.8663 13.6971C32.1381 13.6502 32.321 13.3924 32.2741 13.1205L31.596 9.16895L34.4663 6.37051C34.5444 6.29395 34.596 6.19395 34.6116 6.08458C34.6538 5.81114 34.4631 5.55801 34.1897 5.51739V5.51739Z" fill="#FFC416"/>
<path d="M54.1897 5.51739L50.2225 4.94083L48.4491 1.34551C48.4006 1.24708 48.321 1.16739 48.2225 1.11895C47.9756 0.997076 47.6756 1.09864 47.5522 1.34551L45.7788 4.94083L41.8116 5.51739C41.7022 5.53301 41.6022 5.58458 41.5256 5.6627C41.4331 5.75784 41.3821 5.88583 41.3838 6.01855C41.3856 6.15127 41.44 6.27786 41.535 6.37051L44.4053 9.16895L43.7272 13.1205C43.7113 13.2124 43.7215 13.307 43.7566 13.3934C43.7917 13.4798 43.8503 13.5547 43.9257 13.6095C44.0012 13.6644 44.0906 13.6969 44.1836 13.7036C44.2767 13.7102 44.3697 13.6906 44.4522 13.6471L48.0006 11.7815L51.5491 13.6471C51.646 13.6986 51.7585 13.7158 51.8663 13.6971C52.1381 13.6502 52.321 13.3924 52.2741 13.1205L51.596 9.16895L54.4663 6.37051C54.5444 6.29395 54.596 6.19395 54.6116 6.08458C54.6538 5.81114 54.4631 5.55801 54.1897 5.51739V5.51739Z" fill="#FFC416"/>
<path d="M74.1897 5.51739L70.2225 4.94083L68.4491 1.34551C68.4006 1.24708 68.321 1.16739 68.2225 1.11895C67.9756 0.997076 67.6756 1.09864 67.5522 1.34551L65.7788 4.94083L61.8116 5.51739C61.7022 5.53301 61.6022 5.58458 61.5256 5.6627C61.4331 5.75784 61.3821 5.88583 61.3838 6.01855C61.3856 6.15127 61.44 6.27786 61.535 6.37051L64.4053 9.16895L63.7272 13.1205C63.7113 13.2124 63.7215 13.307 63.7566 13.3934C63.7917 13.4798 63.8503 13.5547 63.9257 13.6095C64.0012 13.6644 64.0906 13.6969 64.1836 13.7036C64.2767 13.7102 64.3697 13.6906 64.4522 13.6471L68.0006 11.7815L71.5491 13.6471C71.646 13.6986 71.7585 13.7158 71.8663 13.6971C72.1381 13.6502 72.321 13.3924 72.2741 13.1205L71.596 9.16895L74.4663 6.37051C74.5444 6.29395 74.596 6.19395 74.6116 6.08458C74.6538 5.81114 74.4631 5.55801 74.1897 5.51739V5.51739Z" fill="#FFC416"/>
<path d="M94.1897 5.51739L90.2225 4.94083L88.4491 1.34551C88.4006 1.24708 88.321 1.16739 88.2225 1.11895C87.9756 0.997076 87.6756 1.09864 87.5522 1.34551L85.7788 4.94083L81.8116 5.51739C81.7022 5.53301 81.6022 5.58458 81.5256 5.6627C81.4331 5.75784 81.3821 5.88583 81.3838 6.01855C81.3856 6.15127 81.44 6.27786 81.535 6.37051L84.4053 9.16895L83.7272 13.1205C83.7113 13.2124 83.7215 13.307 83.7566 13.3934C83.7917 13.4798 83.8503 13.5547 83.9257 13.6095C84.0012 13.6644 84.0906 13.6969 84.1836 13.7036C84.2767 13.7102 84.3697 13.6906 84.4522 13.6471L88.0006 11.7815L91.5491 13.6471C91.646 13.6986 91.7585 13.7158 91.8663 13.6971C92.1381 13.6502 92.321 13.3924 92.2741 13.1205L91.596 9.16895L94.4663 6.37051C94.5444 6.29395 94.596 6.19395 94.6116 6.08458C94.6538 5.81114 94.4631 5.55801 94.1897 5.51739V5.51739Z" fill="#B2B2B2"/>
</svg>
